<svg width="25" height="23" viewBox="0 0 25 23" fill="none" xmlns="http://www.w3.org/2000/svg">
<g clip-path="url(#clip0_90_61)">
<path d="M21.1703 0.662598H3.83852C2.08476 0.662598 0.671021 2.05868 0.671021 3.79053V13.9519C0.671021 15.6749 2.08476 17.0798 3.83852 17.0798H9.95878L12.4999 22.2754L12.5357 22.346L15.1037 17.0798H21.1703C22.9151 17.0798 24.3378 15.6837 24.3378 13.9519V3.79053C24.3378 2.06752 22.9241 0.662598 21.1703 0.662598Z" stroke="#434243" stroke-width="1.5" stroke-linecap="round" stroke-linejoin="round"/>
<path d="M6.12029 6.99826C6.12029 6.99826 5.47605 6.99826 4.89444 7.56376V5.30176H3.45386V11.2395H4.91234V10.7712C4.91234 10.7712 5.25235 11.3809 6.12029 11.3809C6.12029 11.3809 8.15142 11.3102 8.15142 9.16307C8.15142 9.16307 8.07984 6.98943 6.12029 6.98943V6.99826ZM5.79817 10.1262C5.28815 10.1262 4.8676 9.71974 4.8676 9.20725C4.8676 8.69477 5.2792 8.28831 5.79817 8.28831C6.31714 8.28831 6.72873 8.69477 6.72873 9.20725C6.72873 9.71974 6.31714 10.1262 5.79817 10.1262Z" fill="#434243"/>
<path d="M8.6167 5.16016V6.53857C8.6167 6.53857 9.27883 6.51206 9.27883 7.72258V11.2393H10.6747V7.39565C10.6747 7.39565 10.7373 5.16016 8.62565 5.16016H8.6167Z" fill="#434243"/>
<path d="M14.0659 7.01562C14.0659 7.01562 11.6768 7.01563 11.6768 9.21578C11.6768 9.21578 11.5963 11.3894 14.0659 11.3894C14.0659 11.3894 16.5086 11.3894 16.5086 9.21578C16.5086 9.21578 16.5891 7.01562 14.0659 7.01562ZM14.0659 10.1259C13.5558 10.1259 13.1353 9.71943 13.1353 9.20694C13.1353 8.69446 13.5469 8.288 14.0659 8.288C14.5848 8.288 14.9964 8.69446 14.9964 9.20694C14.9964 9.71943 14.5848 10.1259 14.0659 10.1259Z" fill="#434243"/>
<path d="M20.4904 7.15697V7.55459C20.4904 7.55459 20.0788 7.0156 19.2824 7.0156C19.2824 7.0156 17.2423 6.92724 17.2423 9.19808C17.2423 9.19808 17.2155 11.3099 19.2287 11.3099C19.2287 11.3099 20.0519 11.3452 20.4993 10.7709V11.1066C20.4993 11.1066 20.5977 12.1493 19.5777 12.1493H19.2287V13.4128H19.7924C19.7924 13.4128 21.9041 13.4393 21.9041 11.1862V7.16581H20.4993L20.4904 7.15697ZM19.6314 10.1259C19.1214 10.1259 18.7008 9.7194 18.7008 9.20692C18.7008 8.69443 19.1124 8.28798 19.6314 8.28798C20.1503 8.28798 20.5619 8.69443 20.5619 9.20692C20.5619 9.7194 20.1503 10.1259 19.6314 10.1259Z" fill="#434243"/>
</g>
<defs>
<clipPath id="clip0_90_61">
<rect width="25" height="23" fill="white"/>
</clipPath>
</defs>
</svg>
